<?xml version="1.0" encoding="UTF-8" standalone="no"?>
<!-- Created with Inkscape (http://www.inkscape.org/) -->

<svg
   width="229.29678mm"
   height="50.353333mm"
   viewBox="0 0 229.29678 50.353333"
   version="1.1"
   id="svg24006"
   inkscape:export-filename="Collapse.pdf"
   inkscape:export-xdpi="96"
   inkscape:export-ydpi="96"
   inkscape:version="1.2.2 (b0a8486541, 2022-12-01)"
   sodipodi:docname="drawing.svg"
   xmlns:inkscape="http://www.inkscape.org/namespaces/inkscape"
   xmlns:sodipodi="http://sodipodi.sourceforge.net/DTD/sodipodi-0.dtd"
   xmlns="http://www.w3.org/2000/svg"
   xmlns:svg="http://www.w3.org/2000/svg">
  <sodipodi:namedview
     id="namedview24008"
     pagecolor="#cbcbcb"
     bordercolor="#eeeeee"
     borderopacity="1"
     inkscape:showpageshadow="0"
     inkscape:pageopacity="0"
     inkscape:pagecheckerboard="0"
     inkscape:deskcolor="#505050"
     inkscape:document-units="mm"
     showgrid="false"
     inkscape:zoom="0.81423962"
     inkscape:cx="211.24003"
     inkscape:cy="303.96458"
     inkscape:window-width="1982"
     inkscape:window-height="1083"
     inkscape:window-x="1986"
     inkscape:window-y="32"
     inkscape:window-maximized="1"
     inkscape:current-layer="layer1" />
  <defs
     id="defs24003">
    <clipPath
       id="clipPath2476">
      <path
   clip-rule="nonzero"
   d="m 18,0 h 2 v 20.664062 h -2 z m 0,0"
   id="path7704" />

    </clipPath>
    <clipPath
       id="clipPath6660">
      <path
   clip-rule="nonzero"
   d="m 32,0 h 6 v 20.664062 h -6 z m 0,0"
   id="path556" />

    </clipPath>
    <clipPath
       id="clipPath4465">
      <path
   clip-rule="nonzero"
   d="m 82,0 h 1 v 20.664062 h -1 z m 0,0"
   id="path1376" />

    </clipPath>
    <clipPath
       id="clipPath1988">
      <path
   clip-rule="nonzero"
   d="m 96,0 h 6 v 20.664062 h -6 z m 0,0"
   id="path1284" />

    </clipPath>
    <clipPath
       id="clipPath8228">
      <path
   clip-rule="nonzero"
   d="M 2,0 H 4 V 20.664062 H 2 Z m 0,0"
   id="path6345" />

    </clipPath>
    <clipPath
       id="clipPath8085">
      <path
   clip-rule="nonzero"
   d="m 16,0 h 5 v 20.664062 h -5 z m 0,0"
   id="path8701" />

    </clipPath>
    <clipPath
       id="clipPath2541">
      <path
   clip-rule="nonzero"
   d="M 2,0 H 4 V 20.664062 H 2 Z m 0,0"
   id="path1874" />

    </clipPath>
    <clipPath
       id="clipPath1719">
      <path
   clip-rule="nonzero"
   d="m 17,0 h 5 v 20.664062 h -5 z m 0,0"
   id="path3411" />

    </clipPath>
    <clipPath
       id="clipPath5681">
      <path
   clip-rule="nonzero"
   d="M 0,0 H 16.792969 V 8.894531 H 0 Z m 0,0"
   id="path300" />

    </clipPath>
    <marker
       style="overflow:visible"
       id="Arrow5"
       refX="0"
       refY="0"
       orient="auto-start-reverse"
       inkscape:stockid="Arrow5"
       markerWidth="5.8874264"
       markerHeight="6.6094756"
       viewBox="0 0 5.8874262 6.6094758"
       inkscape:isstock="true"
       inkscape:collect="always"
       preserveAspectRatio="xMidYMid">
      <path
         transform="scale(0.5)"
         style="fill:context-stroke;fill-rule:evenodd;stroke:context-stroke;stroke-width:1pt"
         d="m 6,0 c -3,1 -7,3 -9,5 0,0 0,-4 2,-5 -2,-1 -2,-5 -2,-5 2,2 6,4 9,5 z"
         id="path8893" />
    </marker>
    <clipPath
       id="clipPath8382">
      <path
   clip-rule="nonzero"
   d="M 0,0 H 107 V 18.367188 H 0 Z m 0,0"
   id="path4316" />

    </clipPath>
    <clipPath
       id="clipPath459">
      <path
   clip-rule="nonzero"
   d="m 155,1 h 48.73828 V 15 H 155 Z m 0,0"
   id="path1528" />

    </clipPath>
  </defs>
  <g
     inkscape:label="Layer 1"
     inkscape:groupmode="layer"
     id="layer1"
     transform="translate(-27.027754,-68.407579)">
    <g
       id="g23321"
       transform="translate(-32.021167,13.569376)">
      <g
         id="g10298">
        <circle
           style="fill:none;fill-opacity:0.752941;stroke:#3581e3;stroke-width:0.509561;stroke-dasharray:none;stroke-dashoffset:0;stroke-opacity:0.994118"
           id="path10073"
           cx="81.623116"
           cy="82.61734"
           r="22.319414" />
        <g
           inkscape:label=""
           transform="translate(63.851235,78.971369)"
           id="g7687"
           style="fill:#3581e3;fill-opacity:1"><g
   fill="#000000"
   fill-opacity="1"
   id="g41"
   transform="matrix(0.352778,0,0,0.352778,-0.292144,0.00105843)"
   style="fill:#3581e3;fill-opacity:1">
    <g
   id="use39"
   transform="translate(0,15.497)"
   style="fill:#3581e3;fill-opacity:1">
      <path
   d="m 9.5625,-5.21875 c 0,-2.015625 -1.140625,-3.890625 -3.328125,-3.890625 -2.703125,0 -5.40625,2.953125 -5.40625,5.890625 0,1.796875 1.109375,3.421875 3.21875,3.421875 1.28125,0 2.8125,-0.5 4.28125,-1.734375 0.28125,1.15625 0.921875,1.734375 1.8125,1.734375 1.109375,0 1.671875,-1.15625 1.671875,-1.421875 0,-0.1875 -0.140625,-0.1875 -0.203125,-0.1875 -0.171875,0 -0.1875,0.0625 -0.25,0.234375 -0.1875,0.515625 -0.65625,0.96875 -1.15625,0.96875 -0.640625,0 -0.640625,-1.328125 -0.640625,-2.578125 2.109375,-2.53125 2.609375,-5.125 2.609375,-5.15625 0,-0.1875 -0.171875,-0.1875 -0.234375,-0.1875 -0.1875,0 -0.203125,0.0625 -0.28125,0.4375 -0.28125,0.90625 -0.8125,2.515625 -2.09375,4.21875 z m -1.296875,3.1875 C 6.4375,-0.390625 4.8125,-0.203125 4.09375,-0.203125 c -1.46875,0 -1.890625,-1.3125 -1.890625,-2.28125 0,-0.875 0.46875,-2.984375 1.109375,-4.125 0.84375,-1.453125 2,-2.09375 2.921875,-2.09375 2,0 2,2.625 2,4.359375 0,0.515625 -0.015625,1.0625 -0.015625,1.578125 0,0.40625 0.015625,0.515625 0.046875,0.734375 z m 0,0"
   id="path87"
   style="fill:#3581e3;fill-opacity:1" />

    </g>

  </g>

  <g
   clip-path="url(#clipPath2476)"
   id="g47"
   transform="matrix(0.352778,0,0,0.352778,-0.292144,0.00105843)"
   style="fill:#3581e3;fill-opacity:1">
    <g
   fill="#000000"
   fill-opacity="1"
   id="g45"
   style="fill:#3581e3;fill-opacity:1">
      <g
   id="use43"
   transform="translate(16.444,15.497)"
   style="fill:#3581e3;fill-opacity:1">
        <path
   d="m 3.28125,-14.75 c 0,-0.375 0,-0.75 -0.40625,-0.75 -0.421875,0 -0.421875,0.375 -0.421875,0.75 V 4.421875 c 0,0.375 0,0.75 0.421875,0.75 0.40625,0 0.40625,-0.375 0.40625,-0.75 z m 0,0"
   id="path91"
   style="fill:#3581e3;fill-opacity:1" />

      </g>

    </g>

  </g>

  <g
   fill="#000000"
   fill-opacity="1"
   id="g51"
   transform="matrix(0.352778,0,0,0.352778,-0.292144,0.00105843)"
   style="fill:#3581e3;fill-opacity:1">
    <g
   id="use49"
   transform="translate(22.183001,15.497)"
   style="fill:#3581e3;fill-opacity:1">
      <path
   d="m 3.703125,-4.796875 c 0.546875,0 1.953125,-0.03125 2.953125,-0.40625 C 8.21875,-5.796875 8.359375,-7 8.359375,-7.375 c 0,-0.90625 -0.78125,-1.734375 -2.140625,-1.734375 -2.171875,0 -5.296875,1.96875 -5.296875,5.640625 0,2.171875 1.25,3.671875 3.125,3.671875 2.8125,0 4.59375,-2.1875 4.59375,-2.453125 0,-0.125 -0.125,-0.234375 -0.21875,-0.234375 -0.0625,0 -0.078125,0.03125 -0.265625,0.21875 -1.3125,1.75 -3.28125,2.0625 -4.0625,2.0625 -1.1875,0 -1.796875,-0.9375 -1.796875,-2.46875 0,-0.28125 0,-0.796875 0.3125,-2.125 z m -1,-0.40625 c 0.890625,-3.1875 2.859375,-3.5 3.515625,-3.5 0.90625,0 1.53125,0.546875 1.53125,1.328125 0,2.171875 -3.3125,2.171875 -4.171875,2.171875 z m 0,0"
   id="path95"
   style="fill:#3581e3;fill-opacity:1" />

    </g>

  </g>

  <g
   clip-path="url(#clipPath6660)"
   id="g57"
   transform="matrix(0.352778,0,0,0.352778,-0.292144,0.00105843)"
   style="fill:#3581e3;fill-opacity:1">
    <g
   fill="#000000"
   fill-opacity="1"
   id="g55"
   style="fill:#3581e3;fill-opacity:1">
      <g
   id="use53"
   transform="translate(31.559999,15.497)"
   style="fill:#3581e3;fill-opacity:1">
        <path
   d="M 5.640625,-4.8125 C 5.75,-5.0625 5.75,-5.109375 5.75,-5.171875 c 0,-0.046875 0,-0.09375 -0.109375,-0.34375 l -3.609375,-9.5 C 1.90625,-15.375 1.78125,-15.5 1.546875,-15.5 c -0.21875,0 -0.40625,0.1875 -0.40625,0.421875 0,0.0625 0,0.109375 0.09375,0.328125 L 4.890625,-5.171875 1.234375,4.375 c -0.09375,0.234375 -0.09375,0.265625 -0.09375,0.375 0,0.234375 0.1875,0.421875 0.40625,0.421875 0.265625,0 0.359375,-0.21875 0.4375,-0.421875 z m 0,0"
   id="path99"
   style="fill:#3581e3;fill-opacity:1" />

      </g>

    </g>

  </g>

  <g
   fill="#000000"
   fill-opacity="1"
   id="g61"
   transform="matrix(0.352778,0,0,0.352778,-0.292144,0.00105843)"
   style="fill:#3581e3;fill-opacity:1">
    <g
   id="use59"
   transform="translate(44.187,15.497)"
   style="fill:#3581e3;fill-opacity:1">
      <path
   d="m 7.78125,-4.796875 h 5.484375 c 0.28125,0 0.640625,0 0.640625,-0.34375 0,-0.375 -0.328125,-0.375 -0.640625,-0.375 H 7.78125 v -5.46875 c 0,-0.296875 0,-0.640625 -0.34375,-0.640625 -0.375,0 -0.375,0.328125 -0.375,0.640625 v 5.46875 H 1.59375 c -0.296875,0 -0.640625,0 -0.640625,0.34375 0,0.375 0.328125,0.375 0.640625,0.375 H 7.0625 V 0.6875 c 0,0.28125 0,0.640625 0.359375,0.640625 0.359375,0 0.359375,-0.34375 0.359375,-0.640625 z m 0,0"
   id="path103"
   style="fill:#3581e3;fill-opacity:1" />

    </g>

  </g>

  <g
   fill="#000000"
   fill-opacity="1"
   id="g65"
   transform="matrix(0.352778,0,0,0.352778,-0.292144,0.00105843)"
   style="fill:#3581e3;fill-opacity:1">
    <g
   id="use63"
   transform="translate(63.653,15.497)"
   style="fill:#3581e3;fill-opacity:1">
      <path
   d="m 11.6875,-12.015625 c 0,-1.25 -1.046875,-2.546875 -2.921875,-2.546875 -2.671875,0 -4.359375,3.265625 -4.90625,5.40625 L 0.59375,3.796875 C 0.5625,3.96875 0.6875,4 0.78125,4 0.921875,4 1.03125,3.984375 1.046875,3.890625 L 2.5,-1.90625 c 0.203125,1.15625 1.34375,2.109375 2.5625,2.109375 2.953125,0 5.734375,-2.3125 5.734375,-5.390625 0,-0.78125 -0.171875,-1.5625 -0.609375,-2.234375 C 9.9375,-7.8125 9.625,-8.09375 9.296875,-8.34375 10.78125,-9.125 11.6875,-10.390625 11.6875,-12.015625 Z m -3.59375,3.65625 c -0.328125,0.125 -0.65625,0.15625 -1.046875,0.15625 -0.296875,0 -0.5625,0.015625 -0.9375,-0.09375 0.21875,-0.15625 0.515625,-0.1875 0.953125,-0.1875 0.375,0 0.75,0.03125 1.03125,0.125 z m 2.53125,-3.84375 c 0,1.125 -0.5625,2.78125 -1.90625,3.546875 -0.390625,-0.140625 -0.9375,-0.25 -1.390625,-0.25 -0.421875,0 -1.671875,-0.03125 -1.671875,0.625 0,0.5625 1.140625,0.5 1.484375,0.5 0.546875,0 1.015625,-0.125 1.515625,-0.28125 0.65625,0.546875 0.953125,1.25 0.953125,2.28125 0,1.203125 -0.328125,2.171875 -0.734375,3.046875 -0.671875,1.53125 -2.28125,2.53125 -3.703125,2.53125 C 3.65625,-0.203125 2.875,-1.40625 2.875,-2.8125 c 0,-0.1875 0,-0.453125 0.078125,-0.765625 L 4.296875,-9 c 0.6875,-2.71875 2.421875,-5.15625 4.421875,-5.15625 1.484375,0 1.90625,1.046875 1.90625,1.953125 z m 0,0"
   id="path107"
   style="fill:#3581e3;fill-opacity:1" />

    </g>

  </g>

  <g
   clip-path="url(#clipPath4465)"
   id="g71"
   transform="matrix(0.352778,0,0,0.352778,-0.292144,0.00105843)"
   style="fill:#3581e3;fill-opacity:1">
    <g
   fill="#000000"
   fill-opacity="1"
   id="g69"
   style="fill:#3581e3;fill-opacity:1">
      <g
   id="use67"
   transform="translate(79.664001,15.497)"
   style="fill:#3581e3;fill-opacity:1">
        <path
   d="m 3.28125,-14.75 c 0,-0.375 0,-0.75 -0.40625,-0.75 -0.421875,0 -0.421875,0.375 -0.421875,0.75 V 4.421875 c 0,0.375 0,0.75 0.421875,0.75 0.40625,0 0.40625,-0.375 0.40625,-0.75 z m 0,0"
   id="path111"
   style="fill:#3581e3;fill-opacity:1" />

      </g>

    </g>

  </g>

  <g
   fill="#000000"
   fill-opacity="1"
   id="g75"
   transform="matrix(0.352778,0,0,0.352778,-0.292144,0.00105843)"
   style="fill:#3581e3;fill-opacity:1">
    <g
   id="use73"
   transform="translate(85.403,15.497)"
   style="fill:#3581e3;fill-opacity:1">
      <path
   d="m 6.984375,-2.625 c -0.078125,0.328125 -0.125,0.421875 -0.390625,0.71875 -0.84375,1.09375 -1.71875,1.5 -2.359375,1.5 -0.6875,0 -1.328125,-0.546875 -1.328125,-1.96875 0,-1.09375 0.625,-3.40625 1.078125,-4.34375 C 4.578125,-7.875 5.515625,-8.703125 6.375,-8.703125 7.75,-8.703125 8.015625,-7 8.015625,-6.875 l -0.0625,0.28125 z M 8.265625,-7.75 C 8,-8.34375 7.421875,-9.109375 6.375,-9.109375 c -2.25,0 -4.8125,2.828125 -4.8125,5.90625 C 1.5625,-1.046875 2.875,0 4.1875,0 5.28125,0 6.265625,-0.875 6.625,-1.28125 L 6.171875,0.578125 c -0.28125,1.140625 -0.40625,1.65625 -1.15625,2.375 -0.84375,0.84375 -1.625,0.84375 -2.078125,0.84375 -0.625,0 -1.140625,-0.03125 -1.65625,-0.203125 0.65625,-0.1875 0.828125,-0.765625 0.828125,-0.984375 0,-0.34375 -0.25,-0.671875 -0.703125,-0.671875 -0.5,0 -1.03125,0.421875 -1.03125,1.09375 0,0.859375 0.84375,1.1875 2.59375,1.1875 2.671875,0 4.046875,-1.71875 4.328125,-2.828125 L 9.578125,-7.875 c 0.0625,-0.25 0.0625,-0.28125 0.0625,-0.328125 0,-0.28125 -0.21875,-0.515625 -0.53125,-0.515625 -0.5,0 -0.78125,0.421875 -0.84375,0.96875 z m 0,0"
   id="path115"
   style="fill:#3581e3;fill-opacity:1" />

    </g>

  </g>

  <g
   clip-path="url(#clipPath1988)"
   id="g81"
   transform="matrix(0.352778,0,0,0.352778,-0.292144,0.00105843)"
   style="fill:#3581e3;fill-opacity:1">
    <g
   fill="#000000"
   fill-opacity="1"
   id="g79"
   style="fill:#3581e3;fill-opacity:1">
      <g
   id="use77"
   transform="translate(95.832001,15.497)"
   style="fill:#3581e3;fill-opacity:1">
        <path
   d="M 5.640625,-4.8125 C 5.75,-5.0625 5.75,-5.109375 5.75,-5.171875 c 0,-0.046875 0,-0.09375 -0.109375,-0.34375 l -3.609375,-9.5 C 1.90625,-15.375 1.78125,-15.5 1.546875,-15.5 c -0.21875,0 -0.40625,0.1875 -0.40625,0.421875 0,0.0625 0,0.109375 0.09375,0.328125 L 4.890625,-5.171875 1.234375,4.375 c -0.09375,0.234375 -0.09375,0.265625 -0.09375,0.375 0,0.234375 0.1875,0.421875 0.40625,0.421875 0.265625,0 0.359375,-0.21875 0.4375,-0.421875 z m 0,0"
   id="path119"
   style="fill:#3581e3;fill-opacity:1" />

      </g>

    </g>

  </g>

</g>
      </g>
      <circle
         style="fill:none;fill-opacity:0.752941;stroke:#3581e3;stroke-width:0.509561;stroke-dasharray:none;stroke-dashoffset:0;stroke-opacity:0.994118"
         id="circle10257"
         cx="202.80128"
         cy="82.61734"
         r="22.319414" />
      <g
         inkscape:label=""
         transform="translate(199.55328,78.971368)"
         id="g11209"
         style="fill:#3481e3;fill-opacity:0.996078;stroke:none;stroke-opacity:0.996078"><g
   clip-path="url(#clipPath8228)"
   id="g25"
   transform="matrix(0.352778,0,0,0.352778,-0.865408,0.00105843)"
   style="fill:#3481e3;fill-opacity:0.996078;stroke:none;stroke-opacity:0.996078">
    <g
   fill="#000000"
   fill-opacity="1"
   id="g23"
   style="fill:#3481e3;fill-opacity:0.996078;stroke:none;stroke-opacity:0.996078">
      <g
   id="use21"
   transform="translate(0,15.497)"
   style="fill:#3481e3;fill-opacity:0.996078;stroke:none;stroke-opacity:0.996078">
        <path
   d="m 3.28125,-14.75 c 0,-0.375 0,-0.75 -0.40625,-0.75 -0.421875,0 -0.421875,0.375 -0.421875,0.75 V 4.421875 c 0,0.375 0,0.75 0.421875,0.75 0.40625,0 0.40625,-0.375 0.40625,-0.75 z m 0,0"
   id="path41"
   style="fill:#3481e3;fill-opacity:0.996078;stroke:none;stroke-opacity:0.996078" />

      </g>

    </g>

  </g>

  <g
   fill="#000000"
   fill-opacity="1"
   id="g29"
   transform="matrix(0.352778,0,0,0.352778,-0.865408,0.00105843)"
   style="fill:#3481e3;fill-opacity:0.996078;stroke:none;stroke-opacity:0.996078">
    <g
   id="use27"
   transform="translate(5.7399998,15.497)"
   style="fill:#3481e3;fill-opacity:0.996078;stroke:none;stroke-opacity:0.996078">
      <path
   d="m 3.703125,-4.796875 c 0.546875,0 1.953125,-0.03125 2.953125,-0.40625 C 8.21875,-5.796875 8.359375,-7 8.359375,-7.375 c 0,-0.90625 -0.78125,-1.734375 -2.140625,-1.734375 -2.171875,0 -5.296875,1.96875 -5.296875,5.640625 0,2.171875 1.25,3.671875 3.125,3.671875 2.8125,0 4.59375,-2.1875 4.59375,-2.453125 0,-0.125 -0.125,-0.234375 -0.21875,-0.234375 -0.0625,0 -0.078125,0.03125 -0.265625,0.21875 -1.3125,1.75 -3.28125,2.0625 -4.0625,2.0625 -1.1875,0 -1.796875,-0.9375 -1.796875,-2.46875 0,-0.28125 0,-0.796875 0.3125,-2.125 z m -1,-0.40625 c 0.890625,-3.1875 2.859375,-3.5 3.515625,-3.5 0.90625,0 1.53125,0.546875 1.53125,1.328125 0,2.171875 -3.3125,2.171875 -4.171875,2.171875 z m 0,0"
   id="path45"
   style="fill:#3481e3;fill-opacity:0.996078;stroke:none;stroke-opacity:0.996078" />

    </g>

  </g>

  <g
   clip-path="url(#clipPath8085)"
   id="g35"
   transform="matrix(0.352778,0,0,0.352778,-0.865408,0.00105843)"
   style="fill:#3481e3;fill-opacity:0.996078;stroke:none;stroke-opacity:0.996078">
    <g
   fill="#000000"
   fill-opacity="1"
   id="g33"
   style="fill:#3481e3;fill-opacity:0.996078;stroke:none;stroke-opacity:0.996078">
      <g
   id="use31"
   transform="translate(15.117,15.497)"
   style="fill:#3481e3;fill-opacity:0.996078;stroke:none;stroke-opacity:0.996078">
        <path
   d="M 5.640625,-4.8125 C 5.75,-5.0625 5.75,-5.109375 5.75,-5.171875 c 0,-0.046875 0,-0.09375 -0.109375,-0.34375 l -3.609375,-9.5 C 1.90625,-15.375 1.78125,-15.5 1.546875,-15.5 c -0.21875,0 -0.40625,0.1875 -0.40625,0.421875 0,0.0625 0,0.109375 0.09375,0.328125 L 4.890625,-5.171875 1.234375,4.375 c -0.09375,0.234375 -0.09375,0.265625 -0.09375,0.375 0,0.234375 0.1875,0.421875 0.40625,0.421875 0.265625,0 0.359375,-0.21875 0.4375,-0.421875 z m 0,0"
   id="path49"
   style="fill:#3481e3;fill-opacity:0.996078;stroke:none;stroke-opacity:0.996078" />

      </g>

    </g>

  </g>

</g>
      <g
         inkscape:label=""
         transform="translate(262.33795,78.971368)"
         id="g12595"
         style="fill:#3481e3;fill-opacity:0.996078;stroke:none;stroke-opacity:0.996078"><g
   clip-path="url(#clipPath2541)"
   id="g12579"
   transform="matrix(0.352778,0,0,0.352778,-0.865408,0.00105843)"
   style="fill:#3481e3;fill-opacity:0.996078;stroke:none;stroke-opacity:0.996078">
    <g
   fill="#000000"
   fill-opacity="1"
   id="g12577"
   style="fill:#3481e3;fill-opacity:0.996078;stroke:none;stroke-opacity:0.996078">
      <g
   id="g12575"
   transform="translate(0,15.497)"
   style="fill:#3481e3;fill-opacity:0.996078;stroke:none;stroke-opacity:0.996078">
        <path
   d="m 3.28125,-14.75 c 0,-0.375 0,-0.75 -0.40625,-0.75 -0.421875,0 -0.421875,0.375 -0.421875,0.75 V 4.421875 c 0,0.375 0,0.75 0.421875,0.75 0.40625,0 0.40625,-0.375 0.40625,-0.75 z m 0,0"
   id="path12573"
   style="fill:#3481e3;fill-opacity:0.996078;stroke:none;stroke-opacity:0.996078" />

      </g>

    </g>

  </g>

  <g
   fill="#000000"
   fill-opacity="1"
   id="g12585"
   transform="matrix(0.352778,0,0,0.352778,-0.865408,0.00105843)"
   style="fill:#3481e3;fill-opacity:0.996078;stroke:none;stroke-opacity:0.996078">
    <g
   id="g12583"
   transform="translate(5.7399998,15.497)"
   style="fill:#3481e3;fill-opacity:0.996078;stroke:none;stroke-opacity:0.996078">
      <path
   d="m 6.984375,-2.625 c -0.078125,0.328125 -0.125,0.421875 -0.390625,0.71875 -0.84375,1.09375 -1.71875,1.5 -2.359375,1.5 -0.6875,0 -1.328125,-0.546875 -1.328125,-1.96875 0,-1.09375 0.625,-3.40625 1.078125,-4.34375 C 4.578125,-7.875 5.515625,-8.703125 6.375,-8.703125 7.75,-8.703125 8.015625,-7 8.015625,-6.875 l -0.0625,0.28125 z M 8.265625,-7.75 C 8,-8.34375 7.421875,-9.109375 6.375,-9.109375 c -2.25,0 -4.8125,2.828125 -4.8125,5.90625 C 1.5625,-1.046875 2.875,0 4.1875,0 5.28125,0 6.265625,-0.875 6.625,-1.28125 L 6.171875,0.578125 c -0.28125,1.140625 -0.40625,1.65625 -1.15625,2.375 -0.84375,0.84375 -1.625,0.84375 -2.078125,0.84375 -0.625,0 -1.140625,-0.03125 -1.65625,-0.203125 0.65625,-0.1875 0.828125,-0.765625 0.828125,-0.984375 0,-0.34375 -0.25,-0.671875 -0.703125,-0.671875 -0.5,0 -1.03125,0.421875 -1.03125,1.09375 0,0.859375 0.84375,1.1875 2.59375,1.1875 2.671875,0 4.046875,-1.71875 4.328125,-2.828125 L 9.578125,-7.875 c 0.0625,-0.25 0.0625,-0.28125 0.0625,-0.328125 0,-0.28125 -0.21875,-0.515625 -0.53125,-0.515625 -0.5,0 -0.78125,0.421875 -0.84375,0.96875 z m 0,0"
   id="path12581"
   style="fill:#3481e3;fill-opacity:0.996078;stroke:none;stroke-opacity:0.996078" />

    </g>

  </g>

  <g
   clip-path="url(#clipPath1719)"
   id="g12593"
   transform="matrix(0.352778,0,0,0.352778,-0.865408,0.00105843)"
   style="fill:#3481e3;fill-opacity:0.996078;stroke:none;stroke-opacity:0.996078">
    <g
   fill="#000000"
   fill-opacity="1"
   id="g12591"
   style="fill:#3481e3;fill-opacity:0.996078;stroke:none;stroke-opacity:0.996078">
      <g
   id="g12589"
   transform="translate(16.169001,15.497)"
   style="fill:#3481e3;fill-opacity:0.996078;stroke:none;stroke-opacity:0.996078">
        <path
   d="M 5.640625,-4.8125 C 5.75,-5.0625 5.75,-5.109375 5.75,-5.171875 c 0,-0.046875 0,-0.09375 -0.109375,-0.34375 l -3.609375,-9.5 C 1.90625,-15.375 1.78125,-15.5 1.546875,-15.5 c -0.21875,0 -0.40625,0.1875 -0.40625,0.421875 0,0.0625 0,0.109375 0.09375,0.328125 L 4.890625,-5.171875 1.234375,4.375 c -0.09375,0.234375 -0.09375,0.265625 -0.09375,0.375 0,0.234375 0.1875,0.421875 0.40625,0.421875 0.265625,0 0.359375,-0.21875 0.4375,-0.421875 z m 0,0"
   id="path12587"
   style="fill:#3481e3;fill-opacity:0.996078;stroke:none;stroke-opacity:0.996078" />

      </g>

    </g>

  </g>

</g>
      <circle
         style="fill:none;fill-opacity:0.752941;stroke:#3581e3;stroke-width:0.509561;stroke-dasharray:none;stroke-dashoffset:0;stroke-opacity:0.994118"
         id="circle13041"
         cx="265.77151"
         cy="82.61734"
         r="22.319414" />
      <g
         inkscape:label=""
         transform="translate(231.50151,80.967304)"
         id="g13999"><g
   clip-path="url(#clipPath5681)"
   id="g21"
   transform="matrix(0.352778,0,0,0.352778,-0.198437,0.0811387)">
    <g
   fill="#000000"
   fill-opacity="1"
   id="g19">
      <g
   id="use15"
   transform="translate(0,8.8950005)">
        <path
   d="M 8.90625,-4.421875 C 8.90625,-7.0625 6.984375,-9.125 4.734375,-9.125 c -2.25,0 -4.171875,2.0625 -4.171875,4.703125 0,2.609375 1.921875,4.59375 4.171875,4.59375 2.25,0 4.171875,-1.984375 4.171875,-4.59375 z m -4.171875,4.21875 c -0.96875,0 -1.796875,-0.578125 -2.28125,-1.390625 C 1.9375,-2.515625 1.875,-3.671875 1.875,-4.578125 c 0,-0.875 0.046875,-1.953125 0.578125,-2.875 0.421875,-0.6875 1.21875,-1.34375 2.28125,-1.34375 0.921875,0 1.703125,0.515625 2.203125,1.234375 0.640625,0.96875 0.640625,2.34375 0.640625,2.984375 0,0.796875 -0.03125,2.03125 -0.59375,3.03125 -0.578125,0.953125 -1.46875,1.34375 -2.25,1.34375 z m 0,0"
   id="path27" />

      </g>

      <g
   id="use17"
   transform="translate(9.4758224,8.8950005)">
        <path
   d="m 3.09375,-4.875 c 0,-1.984375 0.859375,-3.84375 2.40625,-3.84375 0.140625,0 0.28125,0.015625 0.421875,0.078125 0,0 -0.453125,0.15625 -0.453125,0.6875 0,0.5 0.390625,0.703125 0.703125,0.703125 0.25,0 0.703125,-0.140625 0.703125,-0.71875 0,-0.671875 -0.65625,-1.078125 -1.359375,-1.078125 -1.5625,0 -2.25,1.53125 -2.453125,2.25 H 3.03125 v -2.25 L 0.640625,-8.8125 v 0.53125 c 1.21875,0 1.40625,0.125 1.40625,1.109375 v 5.75 c 0,0.78125 -0.078125,0.890625 -1.40625,0.890625 V 0 c 0.5,-0.046875 1.453125,-0.046875 1.984375,-0.046875 0.59375,0 1.65625,0 2.203125,0.046875 v -0.53125 c -1.484375,0 -1.734375,0 -1.734375,-0.9375 z m 0,0"
   id="path31" />

      </g>

    </g>

  </g>

</g>
      <path
         style="fill:none;fill-opacity:0.752941;stroke:#000000;stroke-width:1.411;stroke-linecap:round;stroke-dasharray:none;stroke-opacity:1;marker-end:url(#Arrow5)"
         d="m 112.24691,82.617341 h 54.91576"
         id="path9657" />
      <g
         id="g18629">
        <path
           style="fill:#e37834;fill-opacity:0.996078;stroke:#000000;stroke-width:0.705556;stroke-linecap:round;stroke-dasharray:none;stroke-opacity:0.996078"
           d="m 131.63007,77.116897 2.52748,-9.822709 4.88264,11.143892 2.47003,-3.331678 0.4021,3.618891 10.51203,-7.1229 -4.82519,9.018513 6.20381,6.261259 -10.51202,-0.402098 2.06794,8.846185 -6.08893,-9.36317 -1.14886,5.342175 -1.55095,-5.399619 -6.26126,4.940078 3.15935,-5.916605 -11.83321,5.227291 8.27176,-6.433587 -4.53798,-3.159353 4.99752,0.746758 -5.28473,-9.075957 z"
           id="path15046" />
        <path
           style="fill:#ffff88;fill-opacity:0.996078;stroke:none;stroke-width:0.705556;stroke-linecap:round;stroke-dasharray:none;stroke-opacity:0.996078"
           d="m 131.85984,80.908119 c -0.22977,-0.229769 -2.29771,-3.733779 -2.29771,-3.733779 l 3.73378,2.814696 1.2063,-7.180344 4.02099,8.156871 2.06794,-1.895613 0.4021,2.010498 7.1229,-4.480534 -3.10191,5.514504 5.74428,3.446566 -7.58245,-0.976527 -1.37862,1.838166 -3.33168,-2.699808 -0.74676,2.010494 -1.32118,-2.067938 -2.18282,2.297711 0.34465,-3.101909 -4.48053,2.527482 1.66584,-2.29771 -2.35516,-0.746757 2.98703,-0.172329 z"
           id="path16141" />
      </g>
      <g
         inkscape:label=""
         transform="translate(102.37976,54.834543)"
         id="g21967"><g
   clip-path="url(#clipPath8382)"
   id="g21927"
   transform="matrix(0.352778,0,0,0.352778,-0.297656,0.00366008)">
    <g
   fill="#000000"
   fill-opacity="1"
   id="g21925">
      <g
   id="g21891"
   transform="translate(0,14.349)">
        <path
   d="m 11.015625,-2.625 -4.96875,-11.109375 c -0.1875,-0.4375 -0.359375,-0.4375 -0.796875,-0.4375 H 0.84375 v 0.890625 h 2.1875 v 11.765625 c 0,0.46875 -0.015625,0.484375 -0.546875,0.5625 -0.375,0.046875 -0.796875,0.0625 -1.15625,0.0625 H 0.84375 V 0 c 0.484375,-0.046875 2.09375,-0.046875 2.671875,-0.046875 0.578125,0 2.203125,0 2.6875,0.046875 V -0.890625 H 5.71875 c -0.546875,0 -0.59375,0 -1.09375,-0.0625 C 4.03125,-1.03125 4,-1.046875 4,-1.515625 V -13.03125 H 4.03125 L 9.640625,-0.4375 C 9.75,-0.203125 9.875,0 10.21875,0 c 0.359375,0 0.484375,-0.203125 0.578125,-0.4375 l 5.734375,-12.84375 h 0.01563 v 12.390625 h -2.1875 V 0 c 0.546875,-0.046875 2.703125,-0.046875 3.40625,-0.046875 0.703125,0 2.84375,0 3.40625,0.046875 v -0.890625 h -2.1875 V -13.28125 h 2.1875 v -0.890625 h -4.40625 c -0.421875,0 -0.609375,0 -0.796875,0.4375 z m 0,0"
   id="path21889" />

      </g>

      <g
   id="g21895"
   transform="translate(22.048954,14.349)">
        <path
   d="m 9.34375,-4.5625 c 0.46875,0 0.59375,0 0.59375,-0.515625 0,-0.625 -0.140625,-2.171875 -1.09375,-3.140625 -0.875,-0.875 -2.03125,-1.140625 -3.21875,-1.140625 -3.234375,0 -4.984375,2.109375 -4.984375,4.71875 0,2.890625 2.125,4.765625 5.25,4.765625 C 9,0.125 9.9375,-2.0625 9.9375,-2.421875 c 0,-0.3125 -0.3125,-0.3125 -0.4375,-0.3125 -0.328125,0 -0.34375,0.0625 -0.46875,0.34375 C 8.484375,-1.046875 7.125,-0.625 6.140625,-0.625 c -3,0 -3.015625,-2.78125 -3.015625,-3.9375 z M 3.125,-5.171875 C 3.15625,-6.015625 3.1875,-6.8125 3.609375,-7.5625 4,-8.21875 4.734375,-8.671875 5.625,-8.671875 c 2.203125,0 2.390625,2.46875 2.40625,3.5 z m 0,0"
   id="path21893" />

      </g>

      <g
   id="g21899"
   transform="translate(32.655014,14.349)">
        <path
   d="m 9.5,-6.171875 c 0,-1.90625 -1.5,-3.1875 -4.421875,-3.1875 -1.15625,0 -3.59375,0.109375 -3.59375,1.84375 0,0.859375 0.65625,1.234375 1.21875,1.234375 0.625,0 1.21875,-0.4375 1.21875,-1.21875 0,-0.390625 -0.140625,-0.765625 -0.5,-0.984375 0.6875,-0.1875 1.1875,-0.1875 1.578125,-0.1875 1.40625,0 2.25,0.78125 2.25,2.46875 V -5.375 c -3.265625,0 -6.546875,0.90625 -6.546875,3.203125 0,1.875 2.390625,2.296875 3.828125,2.296875 1.578125,0 2.59375,-0.875 3.015625,-1.78125 0,0.765625 0,1.65625 2.078125,1.65625 h 1.046875 c 0.4375,0 0.609375,0 0.609375,-0.453125 0,-0.4375 -0.1875,-0.4375 -0.484375,-0.4375 C 9.5,-0.90625 9.5,-1.234375 9.5,-1.71875 Z M 7.25,-2.875 c 0,1.953125 -1.734375,2.3125 -2.390625,2.3125 C 3.84375,-0.5625 3,-1.234375 3,-2.1875 c 0,-1.875 2.21875,-2.515625 4.25,-2.625 z m 0,0"
   id="path21897" />

      </g>

      <g
   id="g21903"
   transform="translate(43.955338,14.349)">
        <path
   d="m 7.78125,-8.8125 c 0,-0.40625 0,-0.546875 -0.296875,-0.546875 -0.125,0 -0.171875,0 -0.484375,0.1875 C 6.921875,-9.109375 6.6875,-8.96875 6.59375,-8.90625 6.015625,-9.234375 5.25,-9.359375 4.5,-9.359375 c -0.609375,0 -3.71875,0 -3.71875,2.6875 0,2.171875 2.5625,2.625 3.203125,2.71875 0.5625,0.109375 1.234375,0.234375 1.328125,0.234375 0.828125,0.1875 1.65625,0.703125 1.65625,1.578125 0,1.578125 -1.890625,1.578125 -2.328125,1.578125 -1.046875,0 -2.34375,-0.328125 -2.921875,-2.328125 -0.125,-0.421875 -0.15625,-0.4375 -0.5,-0.4375 -0.4375,0 -0.4375,0.0625 -0.4375,0.546875 v 2.375 c 0,0.390625 0,0.53125 0.3125,0.53125 0.140625,0 0.1875,0 0.59375,-0.328125 L 2.234375,-0.59375 C 3.15625,0.125 4.28125,0.125 4.640625,0.125 c 1.140625,0 3.71875,-0.25 3.71875,-3 0,-0.984375 -0.53125,-1.671875 -0.9375,-2.046875 C 6.5625,-5.625 5.859375,-5.75 4.75,-5.953125 3.421875,-6.171875 2.1875,-6.40625 2.1875,-7.390625 c 0,-1.34375 1.84375,-1.34375 2.28125,-1.34375 2.28125,0 2.40625,1.4375 2.453125,1.953125 C 6.9375,-6.5 7.109375,-6.5 7.359375,-6.5 7.78125,-6.5 7.78125,-6.5625 7.78125,-7.046875 Z m 0,0"
   id="path21901" />

      </g>

      <g
   id="g21907"
   transform="translate(53.125355,14.349)">
        <path
   d="m 7.296875,-9.125 v 0.890625 c 1.28125,0 1.421875,0 1.421875,0.796875 v 4.046875 c 0,1.578125 -0.9375,2.828125 -2.546875,2.828125 -1.546875,0 -1.625,-0.515625 -1.625,-1.640625 v -7.09375 L 0.875,-9.125 v 0.890625 c 1.265625,0 1.421875,0 1.421875,0.796875 v 4.890625 c 0,2.078125 1.375,2.671875 3.59375,2.671875 0.484375,0 2.015625,0 2.90625,-1.671875 H 8.8125 V 0.125 L 12.390625,0 v -0.890625 c -1.28125,0 -1.421875,0 -1.421875,-0.796875 v -7.609375 z m 0,0"
   id="path21905" />

      </g>

      <g
   id="g21911"
   transform="translate(66.039413,14.349)">
        <path
   d="m 4.296875,-4.640625 c 0,-0.6875 0.140625,-3.96875 2.5625,-3.96875 -0.296875,0.21875 -0.4375,0.578125 -0.4375,0.953125 0,0.84375 0.6875,1.1875 1.203125,1.1875 0.515625,0 1.1875,-0.34375 1.1875,-1.1875 C 8.8125,-8.71875 7.75,-9.296875 6.75,-9.296875 5.125,-9.296875 4.421875,-7.875 4.125,-7 H 4.109375 V -9.296875 L 0.71875,-9.125 v 0.890625 c 1.28125,0 1.421875,0 1.421875,0.796875 v 6.546875 H 0.71875 V 0 C 1.203125,-0.046875 2.75,-0.046875 3.328125,-0.046875 c 0.59375,0 2.265625,0 2.765625,0.046875 V -0.890625 H 4.296875 Z m 0,0"
   id="path21909" />

      </g>

      <g
   id="g21915"
   transform="translate(75.533836,14.349)">
        <path
   d="m 4.609375,-12.875 c 0,-0.84375 -0.6875,-1.484375 -1.484375,-1.484375 -0.859375,0 -1.5,0.703125 -1.5,1.484375 0,0.796875 0.640625,1.5 1.5,1.5 0.796875,0 1.484375,-0.640625 1.484375,-1.5 z m -3.640625,3.75 v 0.890625 c 1.21875,0 1.359375,0 1.359375,0.796875 v 6.546875 H 0.90625 V 0 c 0.484375,-0.046875 1.90625,-0.046875 2.453125,-0.046875 0.59375,0 1.90625,0 2.40625,0.046875 v -0.890625 h -1.28125 v -8.40625 z m 0,0"
   id="path21913" />

      </g>

      <g
   id="g21919"
   transform="translate(81.990868,14.349)">
        <path
   d="m 10.96875,-6.328125 c 0,-1.953125 -0.84375,-2.96875 -3.125,-2.96875 -1.484375,0 -2.765625,0.71875 -3.46875,2.28125 H 4.359375 v -2.28125 L 0.875,-9.125 v 0.890625 c 1.265625,0 1.421875,0 1.421875,0.796875 v 6.546875 H 0.875 V 0 c 0.46875,-0.046875 1.953125,-0.046875 2.53125,-0.046875 0.578125,0 2.09375,0 2.5625,0.046875 V -0.890625 H 4.546875 V -5.28125 c 0,-2.234375 1.65625,-3.328125 2.96875,-3.328125 0.765625,0 1.203125,0.484375 1.203125,2.0625 v 5.65625 H 7.296875 V 0 c 0.46875,-0.046875 1.953125,-0.046875 2.53125,-0.046875 0.578125,0 2.09375,0 2.5625,0.046875 V -0.890625 H 10.96875 Z m 0,0"
   id="path21917" />

      </g>

      <g
   id="g21923"
   transform="translate(94.90493,14.349)">
        <path
   d="M 2.6875,-3.765625 C 3.671875,-3.21875 4.828125,-3.21875 5.140625,-3.21875 8,-3.21875 9.125,-4.8125 9.125,-6.265625 c 0,-1.046875 -0.59375,-1.796875 -0.84375,-2 C 8.875,-8.59375 9.375,-8.671875 9.734375,-8.71875 c -0.0625,0.109375 -0.125,0.1875 -0.125,0.453125 0,0.4375 0.28125,0.828125 0.828125,0.828125 0.53125,0 0.8125,-0.390625 0.8125,-0.828125 0,-0.5 -0.359375,-1.15625 -1.234375,-1.15625 -0.890625,0 -1.734375,0.4375 -2.171875,0.8125 -0.84375,-0.5 -1.640625,-0.6875 -2.703125,-0.6875 -2.84375,0 -3.984375,1.59375 -3.984375,3.03125 0,0.640625 0.203125,1.5 1.078125,2.203125 -0.359375,0.390625 -0.71875,1.109375 -0.71875,1.859375 0,0.875 0.46875,1.640625 0.90625,1.96875 -0.5,0.125 -1.78125,0.609375 -1.78125,1.78125 0,1.21875 1.34375,2.609375 5.140625,2.609375 3.4375,0 5.171875,-1.125 5.171875,-2.671875 0,-1.8125 -1.203125,-2.40625 -1.71875,-2.65625 -1,-0.5 -2.3125,-0.5 -4.125,-0.5 -0.53125,0 -1.4375,0 -1.53125,-0.015625 C 2.6875,-1.84375 2.4375,-2.625 2.4375,-3.015625 c 0,-0.171875 0.015625,-0.46875 0.25,-0.75 z m 2.453125,-0.125 c -1.796875,0 -1.796875,-1.421875 -1.796875,-2.375 0,-0.9375 0,-2.375 1.796875,-2.375 1.796875,0 1.796875,1.4375 1.796875,2.375 0,0.953125 0,2.375 -1.796875,2.375 z m 1.15625,4.125 C 7.8125,0.234375 9.25,0.5 9.25,1.5625 c 0,0.734375 -0.71875,1.921875 -3.453125,1.921875 -2.71875,0 -3.46875,-1.15625 -3.46875,-1.9375 0,-1.3125 1.3125,-1.3125 1.625,-1.3125 z m 0,0"
   id="path21921" />

      </g>

    </g>

  </g>

  <g
   fill="#000000"
   fill-opacity="1"
   id="g21941"
   transform="matrix(0.352778,0,0,0.352778,-0.297656,0.00366008)">
    <g
   id="g21931"
   transform="translate(114.27602,14.349)">
      <path
   d="m 4.359375,-8.28125 h 2.96875 v -0.890625 h -2.96875 v -3.9375 h -0.875 c -0.015625,2.03125 -1,4.078125 -3.046875,4.140625 v 0.6875 h 1.671875 v 5.734375 c 0,2.203125 1.6875,2.671875 3.171875,2.671875 1.53125,0 2.4375,-1.15625 2.4375,-2.6875 V -3.65625 H 6.859375 v 1.078125 c 0,1.359375 -0.625,1.953125 -1.265625,1.953125 -1.234375,0 -1.234375,-1.375 -1.234375,-1.859375 z m 0,0"
   id="path21929" />

    </g>

    <g
   id="g21935"
   transform="translate(123.31586,14.349)">
      <path
   d="m 10.96875,-6.328125 c 0,-1.953125 -0.84375,-2.96875 -3.125,-2.96875 -2.078125,0 -3.09375,1.46875 -3.375,2.09375 H 4.4375 v -7.125 l -3.5625,0.15625 v 0.890625 c 1.265625,0 1.421875,0 1.421875,0.8125 V -0.890625 H 0.875 V 0 c 0.46875,-0.046875 1.953125,-0.046875 2.53125,-0.046875 0.578125,0 2.09375,0 2.5625,0.046875 V -0.890625 H 4.546875 V -5.28125 c 0,-2.234375 1.65625,-3.328125 2.96875,-3.328125 0.765625,0 1.203125,0.484375 1.203125,2.0625 v 5.65625 H 7.296875 V 0 c 0.46875,-0.046875 1.953125,-0.046875 2.53125,-0.046875 0.578125,0 2.09375,0 2.5625,0.046875 V -0.890625 H 10.96875 Z m 0,0"
   id="path21933" />

    </g>

    <g
   id="g21939"
   transform="translate(136.22993,14.349)">
      <path
   d="m 9.34375,-4.5625 c 0.46875,0 0.59375,0 0.59375,-0.515625 0,-0.625 -0.140625,-2.171875 -1.09375,-3.140625 -0.875,-0.875 -2.03125,-1.140625 -3.21875,-1.140625 -3.234375,0 -4.984375,2.109375 -4.984375,4.71875 0,2.890625 2.125,4.765625 5.25,4.765625 C 9,0.125 9.9375,-2.0625 9.9375,-2.421875 c 0,-0.3125 -0.3125,-0.3125 -0.4375,-0.3125 -0.328125,0 -0.34375,0.0625 -0.46875,0.34375 C 8.484375,-1.046875 7.125,-0.625 6.140625,-0.625 c -3,0 -3.015625,-2.78125 -3.015625,-3.9375 z M 3.125,-5.171875 C 3.15625,-6.015625 3.1875,-6.8125 3.609375,-7.5625 4,-8.21875 4.734375,-8.671875 5.625,-8.671875 c 2.203125,0 2.390625,2.46875 2.40625,3.5 z m 0,0"
   id="path21937" />

    </g>

  </g>

  <g
   clip-path="url(#clipPath459)"
   id="g21965"
   transform="matrix(0.352778,0,0,0.352778,-0.297656,0.00366008)">
    <g
   fill="#000000"
   fill-opacity="1"
   id="g21963">
      <g
   id="g21945"
   transform="translate(154.58443,14.349)">
        <path
   d="m 7.78125,-8.8125 c 0,-0.40625 0,-0.546875 -0.296875,-0.546875 -0.125,0 -0.171875,0 -0.484375,0.1875 C 6.921875,-9.109375 6.6875,-8.96875 6.59375,-8.90625 6.015625,-9.234375 5.25,-9.359375 4.5,-9.359375 c -0.609375,0 -3.71875,0 -3.71875,2.6875 0,2.171875 2.5625,2.625 3.203125,2.71875 0.5625,0.109375 1.234375,0.234375 1.328125,0.234375 0.828125,0.1875 1.65625,0.703125 1.65625,1.578125 0,1.578125 -1.890625,1.578125 -2.328125,1.578125 -1.046875,0 -2.34375,-0.328125 -2.921875,-2.328125 -0.125,-0.421875 -0.15625,-0.4375 -0.5,-0.4375 -0.4375,0 -0.4375,0.0625 -0.4375,0.546875 v 2.375 c 0,0.390625 0,0.53125 0.3125,0.53125 0.140625,0 0.1875,0 0.59375,-0.328125 L 2.234375,-0.59375 C 3.15625,0.125 4.28125,0.125 4.640625,0.125 c 1.140625,0 3.71875,-0.25 3.71875,-3 0,-0.984375 -0.53125,-1.671875 -0.9375,-2.046875 C 6.5625,-5.625 5.859375,-5.75 4.75,-5.953125 3.421875,-6.171875 2.1875,-6.40625 2.1875,-7.390625 c 0,-1.34375 1.84375,-1.34375 2.28125,-1.34375 2.28125,0 2.40625,1.4375 2.453125,1.953125 C 6.9375,-6.5 7.109375,-6.5 7.359375,-6.5 7.78125,-6.5 7.78125,-6.5625 7.78125,-7.046875 Z m 0,0"
   id="path21943" />

      </g>

      <g
   id="g21949"
   transform="translate(163.75444,14.349)">
        <path
   d="m 4.359375,-8.28125 h 2.96875 v -0.890625 h -2.96875 v -3.9375 h -0.875 c -0.015625,2.03125 -1,4.078125 -3.046875,4.140625 v 0.6875 h 1.671875 v 5.734375 c 0,2.203125 1.6875,2.671875 3.171875,2.671875 1.53125,0 2.4375,-1.15625 2.4375,-2.6875 V -3.65625 H 6.859375 v 1.078125 c 0,1.359375 -0.625,1.953125 -1.265625,1.953125 -1.234375,0 -1.234375,-1.375 -1.234375,-1.859375 z m 0,0"
   id="path21947" />

      </g>

      <g
   id="g21953"
   transform="translate(172.7943,14.349)">
        <path
   d="m 9.5,-6.171875 c 0,-1.90625 -1.5,-3.1875 -4.421875,-3.1875 -1.15625,0 -3.59375,0.109375 -3.59375,1.84375 0,0.859375 0.65625,1.234375 1.21875,1.234375 0.625,0 1.21875,-0.4375 1.21875,-1.21875 0,-0.390625 -0.140625,-0.765625 -0.5,-0.984375 0.6875,-0.1875 1.1875,-0.1875 1.578125,-0.1875 1.40625,0 2.25,0.78125 2.25,2.46875 V -5.375 c -3.265625,0 -6.546875,0.90625 -6.546875,3.203125 0,1.875 2.390625,2.296875 3.828125,2.296875 1.578125,0 2.59375,-0.875 3.015625,-1.78125 0,0.765625 0,1.65625 2.078125,1.65625 h 1.046875 c 0.4375,0 0.609375,0 0.609375,-0.453125 0,-0.4375 -0.1875,-0.4375 -0.484375,-0.4375 C 9.5,-0.90625 9.5,-1.234375 9.5,-1.71875 Z M 7.25,-2.875 c 0,1.953125 -1.734375,2.3125 -2.390625,2.3125 C 3.84375,-0.5625 3,-1.234375 3,-2.1875 c 0,-1.875 2.21875,-2.515625 4.25,-2.625 z m 0,0"
   id="path21951" />

      </g>

      <g
   id="g21957"
   transform="translate(184.0946,14.349)">
        <path
   d="m 4.359375,-8.28125 h 2.96875 v -0.890625 h -2.96875 v -3.9375 h -0.875 c -0.015625,2.03125 -1,4.078125 -3.046875,4.140625 v 0.6875 h 1.671875 v 5.734375 c 0,2.203125 1.6875,2.671875 3.171875,2.671875 1.53125,0 2.4375,-1.15625 2.4375,-2.6875 V -3.65625 H 6.859375 v 1.078125 c 0,1.359375 -0.625,1.953125 -1.265625,1.953125 -1.234375,0 -1.234375,-1.375 -1.234375,-1.859375 z m 0,0"
   id="path21955" />

      </g>

      <g
   id="g21961"
   transform="translate(193.13446,14.349)">
        <path
   d="m 9.34375,-4.5625 c 0.46875,0 0.59375,0 0.59375,-0.515625 0,-0.625 -0.140625,-2.171875 -1.09375,-3.140625 -0.875,-0.875 -2.03125,-1.140625 -3.21875,-1.140625 -3.234375,0 -4.984375,2.109375 -4.984375,4.71875 0,2.890625 2.125,4.765625 5.25,4.765625 C 9,0.125 9.9375,-2.0625 9.9375,-2.421875 c 0,-0.3125 -0.3125,-0.3125 -0.4375,-0.3125 -0.328125,0 -0.34375,0.0625 -0.46875,0.34375 C 8.484375,-1.046875 7.125,-0.625 6.140625,-0.625 c -3,0 -3.015625,-2.78125 -3.015625,-3.9375 z M 3.125,-5.171875 C 3.15625,-6.015625 3.1875,-6.8125 3.609375,-7.5625 4,-8.21875 4.734375,-8.671875 5.625,-8.671875 c 2.203125,0 2.390625,2.46875 2.40625,3.5 z m 0,0"
   id="path21959" />

      </g>

    </g>

  </g>

</g>
    </g>
  </g>
</svg>
